<!-- Generated by IcoMoon.io -->
<svg version="1.1" xmlns="http://www.w3.org/2000/svg" width="32" height="32" viewBox="0 0 32 32">
<title>adobe-cc</title>
<path fill="#d41818" d="M27.023 22.797c-0.982 0.993-2.174 1.743-3.476 2.207-0.419 0.143-0.794 0.232-1.225 0.375-0.629 0.154-1.28 0.232-1.931 0.232h-0.188c-2.218 0.011-4.37-0.75-6.080-2.163-0.232-0.188-0.474-0.419-0.706-0.618l-4.524-4.524c-0.419-0.419-0.419-1.081 0-1.556 0.188-0.21 0.463-0.331 0.75-0.331 0.287-0.011 0.563 0.11 0.75 0.331l4.469 4.469c0.419 0.397 0.883 0.761 1.368 1.081 1.159 0.717 2.494 1.092 3.862 1.081 0.618-0.011 1.236-0.088 1.832-0.232 0.364-0.099 0.728-0.221 1.081-0.375 0.883-0.386 1.677-0.927 2.35-1.6 2.869-2.869 2.869-7.581 0-10.45-2.505-2.505-6.433-2.88-9.368-0.894-0.618-0.486-1.302-0.905-2.030-1.225 1.743-1.423 3.917-2.196 6.157-2.207 5.33 0 9.644 4.314 9.644 9.633 0.033 2.527-0.96 4.954-2.737 6.764v0zM10.030 25.611c-2.119 0-4.050-0.894-5.506-2.406-3.057-3.057-3.057-8 0-11.012 1.457-1.468 3.443-2.295 5.506-2.306h0.044c0.375 0 0.761 0.033 1.126 0.099 0.419 0.099 0.794 0.143 1.225 0.276 0.739 0.243 1.434 0.585 2.074 1.037 0.276 0.232 0.618 0.419 0.85 0.706l3.432 3.432c0.419 0.419 0.419 1.081 0 1.556-0.188 0.21-0.463 0.331-0.75 0.331-0.287 0.011-0.563-0.11-0.75-0.331l-3.2-3.2c-0.099-0.099-0.188-0.143-0.232-0.232-0.75-0.651-1.666-1.092-2.637-1.269-0.342-0.077-0.684-0.11-1.037-0.099h-0.143c-3.101 0.088-5.55 2.681-5.462 5.782 0.088 3.046 2.593 5.473 5.639 5.462h0.993l0.938 0.894c0.474 0.474 0.938 0.938 1.512 1.269l-3.619 0.011zM28.535 7.68c-4.612-4.579-12.050-4.579-16.662 0l-0.232 0.232c-0.541-0.099-1.092-0.143-1.644-0.143-2.659-0.011-5.208 1.059-7.062 2.968-3.895 3.895-3.906 10.218-0.011 14.113 1.876 1.876 4.414 2.924 7.062 2.924h10.45c3.057-0.033 5.992-1.269 8.143-3.432 4.568-4.612 4.568-12.094-0.044-16.662v0z"></path>
</svg>
