<!-- Generated by IcoMoon.io -->
<svg version="1.1" xmlns="http://www.w3.org/2000/svg" width="32" height="32" viewBox="0 0 32 32">
<title>autodesk</title>
<path d="M5.971 31.242c-0.87 0-1.315-0.329-1.741-1.083l-3.946-7.331c-0.271-0.522-0.271-0.696-0.271-1.083l6.209 0.271 1.412 1.412h12.457l-10.349 6.403c-0.503 0.309-2.418 1.412-3.772 1.412v0z"></path>
<path d="M7.635 23.447h-5.377c-1.625 0-2.263-0.851-2.263-1.702 0-0.542 0.174-0.832 0.406-1.431l7.834-18.685 0.077-0.155 0.116-0.174 0.232-0.213 0.329-0.174 0.484-0.097 0.832 0.019 5.435 2.031-1.838 5.803-6.267 14.778z"></path>
<path d="M23.419 31.242l-12.36-29.247c-0.213-0.503-0.561-1.141-1.431-1.141-0.793 0-1.161 0.387-1.373 0.793 0.116-0.29 0.445-0.87 1.412-0.87h8.53c0.793 0 1.161 0.464 1.335 0.89l12.496 29.576h-8.608z"></path>
</svg>
