<?xml version="1.0" encoding="utf-8"?>
<!-- Generator: Adobe Illustrator 24.3.0, SVG Export Plug-In . SVG Version: 6.00 Build 0)  -->
<svg version="1.1" id="Layer_1" xmlns="http://www.w3.org/2000/svg" xmlns:xlink="http://www.w3.org/1999/xlink" x="0px" y="0px"
	 viewBox="0 0 32 32" style="enable-background:new 0 0 32 32;" xml:space="preserve">
<style type="text/css">
	.st0{fill:#50B9A8;}
	.st1{fill:#6CA541;}
	.st2{fill:#396FB5;}
</style>
<path class="st0" d="M6,31.2c-0.9,0-1.3-0.3-1.7-1.1l-3.9-7.3C0,22.3,0,22.1,0,21.7l7.6,1.7h12.4L9.7,29.8C9.2,30.1,7.3,31.2,6,31.2
	L6,31.2L6,31.2z"/>
<path class="st1" d="M7.6,23.4H2.3c-1.6,0-2.3-0.9-2.3-1.7c0-0.5,0.2-0.8,0.4-1.4L8.2,1.6l0.1-0.2l0.1-0.2l0.2-0.2L9,0.9l0.5-0.1
	l1,0.1l1.6,2.6l1.8,5.2C13.9,8.7,7.6,23.4,7.6,23.4z"/>
<path class="st2" d="M23.4,31.2L11.1,2c-0.2-0.5-0.6-1.1-1.4-1.1c-0.8,0-1.2,0.4-1.4,0.8c0.1-0.3,0.4-0.9,1.4-0.9h8.5
	c0.8,0,1.2,0.5,1.3,0.9L32,31.2L23.4,31.2L23.4,31.2z"/>
</svg>
