<!-- Generated by IcoMoon.io -->
<svg version="1.1" xmlns="http://www.w3.org/2000/svg" width="32" height="32" viewBox="0 0 32 32">
<title>confluence</title>
<path fill="#2684ff" d="M1.163 24.1c-0.331 0.538-0.7 1.169-1.019 1.663-0.281 0.475-0.131 1.094 0.344 1.387l6.619 4.075c0.231 0.144 0.513 0.188 0.775 0.125s0.494-0.231 0.631-0.469c0.262-0.444 0.606-1.019 0.975-1.631 2.625-4.325 5.262-3.8 10.012-1.525l6.563 3.119c0.25 0.119 0.538 0.131 0.794 0.038s0.469-0.294 0.575-0.544l3.15-7.125c0.225-0.506-0.006-1.1-0.506-1.331-1.387-0.65-4.137-1.95-6.619-3.144-8.912-4.35-16.494-4.075-22.294 5.363z"></path>
<path fill="#2684ff" d="M30.837 7.925c0.331-0.537 0.7-1.169 1.019-1.663 0.281-0.475 0.131-1.094-0.344-1.388l-6.613-4.075c-0.231-0.156-0.525-0.213-0.8-0.15s-0.512 0.237-0.65 0.481c-0.262 0.444-0.606 1.019-0.975 1.631-2.625 4.325-5.262 3.8-10.012 1.525l-6.55-3.094c-0.25-0.119-0.537-0.131-0.794-0.038s-0.469 0.294-0.575 0.544l-3.156 7.131c-0.225 0.506 0.006 1.1 0.506 1.331 1.387 0.65 4.144 1.95 6.625 3.15 8.937 4.325 16.519 4.038 22.319-5.388z"></path>
</svg>
