<!-- Generated by IcoMoon.io -->
<svg version="1.1" xmlns="http://www.w3.org/2000/svg" width="32" height="32" viewBox="0 0 32 32">
<title>google-analytics</title>
<path fill="#ffc107" d="M21 10h-10c-0.6 0-1 0.4-1 1v20c0 0.6 0.4 1 1 1h10c0.6 0 1-0.4 1-1v-20c0-0.6-0.4-1-1-1z"></path>
<path fill="#ffc107" d="M11 20h-10c-0.6 0-1 0.4-1 1v10c0 0.6 0.4 1 1 1h10c0.6 0 1-0.4 1-1v-10c0-0.6-0.4-1-1-1z"></path>
<path fill="#ffa000" d="M31 0h-10c-0.6 0-1 0.4-1 1v30c0 0.6 0.4 1 1 1h10c0.6 0 1-0.4 1-1v-30c0-0.6-0.4-1-1-1z"></path>
</svg>
