<!-- Generated by IcoMoon.io -->
<svg version="1.1" xmlns="http://www.w3.org/2000/svg" width="32" height="32" viewBox="0 0 32 32">
<title>hotjar</title>
<path fill="#e94955" d="M21.333 31.111c2.4-8.444 1.511-12.711-2.667-13.6 0.622 2.844 1.333 5.867-1.689 7.822-1.6 1.067-2.844 0.622-5.689-1.511-1.333 2.667-0.889 5.333-0.267 8.178-4-0.711-7.2-2.4-8.711-6.222-1.422-3.556-0.533-7.644 2.222-10.4 0.978-0.978 2.044-1.867 3.111-2.667 4.533-3.378 5.422-6.667 3.022-11.822-0.089-0.267-0.178-0.622-0.267-0.889 5.067 0.8 9.778 2.756 13.867 5.867 8.8 7.2 7.733 20.178-1.956 24.978-0.178 0.089-0.356 0.089-0.533 0.178s-0.356 0.089-0.444 0.089z"></path>
</svg>
