<!-- Generated by IcoMoon.io -->
<svg version="1.1" xmlns="http://www.w3.org/2000/svg" width="32" height="32" viewBox="0 0 32 32">
<title>illustrator</title>
<path fill="#2d0e0f" d="M5.689 0.356h20.622c3.111 0 5.689 2.489 5.689 5.689v19.822c0 3.111-2.489 5.689-5.689 5.689h-20.622c-3.111 0-5.689-2.489-5.689-5.689v-19.822c0-3.111 2.489-5.689 5.689-5.689z"></path>
<path fill="#f4991c" d="M15.467 19.111h-4.978l-0.978 3.111c0 0.089-0.178 0.178-0.267 0.178h-2.489c-0.178 0-0.178-0.089-0.178-0.267l4.267-12.356c0-0.089 0.089-0.267 0.178-0.444 0.089-0.267 0.089-0.533 0.089-0.889 0-0.089 0-0.089 0.089-0.178 0 0 0 0 0 0h3.378c0.089 0 0.178 0 0.178 0.089l4.978 13.867c0 0.178 0 0.178-0.178 0.178h-2.756c-0.089 0-0.178-0.089-0.178-0.178l-1.156-3.111zM11.289 16.444h3.378c-0.089-0.267-0.178-0.622-0.267-0.978s-0.267-0.711-0.356-1.156c-0.089-0.444-0.267-0.8-0.356-1.244-0.178-0.444-0.267-0.8-0.356-1.156s-0.178-0.711-0.267-1.067v0c-0.089 0.533-0.267 1.156-0.444 1.689-0.178 0.622-0.356 1.333-0.622 1.956-0.267 0.711-0.444 1.333-0.711 1.956v0z"></path>
<path fill="#f4991c" d="M22.667 10.667c-0.444 0-0.889-0.178-1.156-0.444-0.267-0.356-0.444-0.8-0.444-1.244s0.178-0.889 0.444-1.156c0.356-0.267 0.711-0.444 1.156-0.444 0.533 0 0.889 0.178 1.244 0.444 0.267 0.356 0.444 0.711 0.444 1.156s-0.178 0.889-0.444 1.244c-0.356 0.267-0.8 0.444-1.244 0.444zM21.156 22.222v-10.222c0-0.089 0.089-0.178 0.178-0.178h2.667c0.089 0 0.178 0.089 0.178 0.178v10.222c0 0.178-0.089 0.178-0.178 0.178h-2.667c-0.089 0.089-0.178 0-0.178-0.178z"></path>
</svg>
