<!-- Generated by IcoMoon.io -->
<svg version="1.1" xmlns="http://www.w3.org/2000/svg" width="32" height="32" viewBox="0 0 32 32">
<title>indesign</title>
<path fill="#460d22" d="M5.689 0.356h20.622c3.111 0 5.689 2.489 5.689 5.689v19.822c0 3.111-2.489 5.689-5.689 5.689h-20.622c-3.111 0-5.689-2.489-5.689-5.689v-19.822c0-3.111 2.489-5.689 5.689-5.689z"></path>
<path fill="#e83c69" d="M11.644 8.533v13.689c0 0.178-0.089 0.178-0.178 0.178h-2.667c-0.089 0-0.178-0.089-0.178-0.178v-13.689c0-0.089 0.089-0.178 0.178-0.178h2.578c0.178 0 0.178 0.089 0.267 0.178 0 0 0 0 0 0z"></path>
<path fill="#e83c69" d="M19.289 22.667c-0.978 0-1.956-0.178-2.844-0.622-0.8-0.356-1.511-1.067-2.044-1.778-0.533-0.8-0.711-1.867-0.711-3.022 0-0.978 0.267-1.956 0.711-2.844 0.533-0.889 1.244-1.6 2.133-2.044 0.889-0.533 2.044-0.8 3.378-0.8 0.089 0 0.178 0 0.267 0s0.267 0 0.444 0v-4.178c0-0.089 0-0.178 0.178-0.178h2.667c0.089 0 0.089 0 0.089 0.089 0 0 0 0 0 0v12.711c0 0.267 0 0.533 0 0.8s0 0.533 0.089 0.8c0 0.089 0 0.178-0.089 0.178-0.711 0.267-1.422 0.533-2.133 0.622-0.711 0.178-1.422 0.267-2.133 0.267zM20.622 20v-5.867c-0.089 0-0.267-0.089-0.356-0.089-0.178 0-0.267 0-0.444 0-0.533 0-1.067 0.089-1.511 0.356s-0.8 0.533-1.156 0.978c-0.267 0.444-0.444 0.978-0.444 1.689 0 0.444 0.089 0.889 0.267 1.333 0.089 0.356 0.356 0.711 0.622 0.978s0.533 0.444 0.889 0.533c0.356 0.089 0.711 0.178 1.067 0.178 0.178 0 0.356 0 0.533 0s0.356 0 0.533-0.089z"></path>
</svg>
