<!-- Generated by IcoMoon.io -->
<svg version="1.1" xmlns="http://www.w3.org/2000/svg" width="30" height="32" viewBox="0 0 30 32">
<title>jira</title>
<path fill="#2684ff" d="M29.855 15.126l-14.746-14.747-14.748 14.747c-0.481 0.484-0.481 1.266 0 1.748l14.748 14.747 14.746-14.739c0.485-0.481 0.488-1.265 0.006-1.75-0.001-0.003-0.004-0.005-0.006-0.006v0zM15.109 20.62l-4.62-4.62 4.62-4.62 4.618 4.62-4.618 4.62z"></path>
<path fill="#2a57a4" d="M15.109 11.38c-3.025-3.023-3.039-7.922-0.033-10.964l-10.108 10.104 5.501 5.501 4.64-4.641z"></path>
<path fill="#2a57a4" d="M19.739 15.987l-4.631 4.632c3.036 3.037 3.036 7.962 0 10.999l10.135-10.13-5.504-5.501z"></path>
</svg>
