<!-- Generated by IcoMoon.io -->
<svg version="1.1" xmlns="http://www.w3.org/2000/svg" width="32" height="32" viewBox="0 0 32 32">
<title>keyshot</title>
<path d="M5.6 3.822c-1.422 1.244-2.667 2.667-3.556 4.356-1.333 2.4-2.044 4.889-2.044 7.556 0 0.267 0.356 0.356 0.444 0.178 3.733-4.356 8.622-7.556 14.133-9.067 0.267 0 0.267-0.356 0.089-0.444-2.489-1.333-5.067-2.222-7.822-2.844-0.444-0.178-0.8-0.089-1.244 0.267z"></path>
<path d="M24.978 19.644c2.4-1.422 4.444-3.111 6.311-5.244 0.267-0.356 0.356-0.711 0.267-1.156-0.267-1.956-0.978-3.733-1.956-5.333-1.422-2.311-3.2-4.089-5.511-5.511-0.178-0.089-0.444 0.089-0.267 0.267 1.956 5.333 2.222 11.2 0.8 16.711-0.089 0.178 0.178 0.356 0.356 0.267z"></path>
<path d="M8.178 2.044c-0.178 0.178-0.089 0.444 0.089 0.622 5.6 0.889 10.933 3.556 15.022 7.556 0.178 0.178 0.444 0.089 0.444-0.178-0.089-2.844-0.622-5.6-1.422-8.178-0.178-0.444-0.356-0.711-0.889-0.889-1.867-0.711-3.733-0.978-5.689-0.978-2.756 0.089-5.156 0.711-7.556 2.044z"></path>
<path d="M2.222 24.089c1.422 2.311 3.2 4.089 5.511 5.511 0.267 0.267 0.533 0 0.444-0.267-2.044-5.333-2.311-11.2-0.889-16.711 0.089-0.178-0.178-0.356-0.356-0.267-2.4 1.422-4.444 3.111-6.311 5.244-0.267 0.356-0.356 0.711-0.267 1.156 0.267 1.956 0.889 3.733 1.867 5.333z"></path>
<path d="M32 16.356c0-0.267-0.267-0.356-0.444-0.178-3.733 4.356-8.533 7.556-14.133 9.067-0.267 0-0.267 0.356-0.089 0.444 2.489 1.333 5.067 2.222 7.822 2.844 0.444 0.089 0.8 0 1.156-0.267 1.422-1.244 2.667-2.756 3.733-4.267 1.244-2.489 1.956-4.978 1.956-7.644z"></path>
<path d="M10.489 31.022c1.867 0.711 3.733 0.978 5.6 0.978 2.844-0.089 5.156-0.711 7.556-2.044 0.178-0.089 0.089-0.444-0.178-0.444-5.6-0.978-10.756-3.733-14.844-7.644-0.178-0.178-0.444-0.089-0.444 0.178 0.089 2.844 0.622 5.511 1.422 8.178 0.267 0.444 0.444 0.622 0.889 0.8z"></path>
<path d="M17.956 8.889c-0.356-0.178-0.711-0.267-1.067-0.178-2.133 0.356-4.178 1.067-6.133 2.044-0.356 0.178-0.622 0.356-0.711 0.8-0.711 2.044-1.156 4.178-1.244 6.311 0 0.356 0.089 0.711 0.356 1.067 1.422 1.689 3.022 3.022 4.889 4.267 0.356 0.178 0.711 0.267 1.067 0.178 2.133-0.356 4.178-1.067 6.133-2.044 0.356-0.178 0.622-0.356 0.711-0.8 0.711-2.044 1.156-4.178 1.244-6.311 0-0.356-0.089-0.711-0.356-1.067-1.422-1.6-3.111-3.022-4.889-4.267z"></path>
</svg>
