<!-- Generated by IcoMoon.io -->
<svg version="1.1" xmlns="http://www.w3.org/2000/svg" width="32" height="32" viewBox="0 0 32 32">
<title>premiere</title>
<path fill="#20244d" d="M5.689 0.444h20.622c3.111 0 5.689 2.489 5.689 5.689v19.822c0 3.111-2.489 5.689-5.689 5.689h-20.622c-3.111 0-5.689-2.489-5.689-5.689v-19.911c0-3.111 2.578-5.6 5.689-5.6z"></path>
<path fill="#9294c9" d="M7.644 22.311v-13.778c0-0.089 0-0.178 0.089-0.178 0.267 0 0.444 0 0.711 0 0.356 0 0.622 0 0.978 0s0.711 0 1.156 0c0.444 0 0.8 0 1.244 0 1.067 0 1.956 0.089 2.756 0.444 0.622 0.267 1.244 0.622 1.778 1.067 0.444 0.444 0.8 0.978 0.978 1.511s0.267 1.156 0.267 1.689c0 1.156-0.267 2.133-0.8 2.844s-1.244 1.333-2.133 1.6c-0.889 0.356-1.867 0.444-3.022 0.444-0.356 0-0.533 0-0.622 0s-0.356 0-0.533 0v4.267c0 0.089-0.089 0.178-0.178 0.178 0 0 0 0-0.089 0h-2.489c-0.089 0.089-0.089 0-0.089-0.089zM10.489 11.022v4.444c0.178 0 0.356 0 0.533 0h0.711c0.533 0 1.067-0.089 1.511-0.267 0.444-0.089 0.8-0.356 1.067-0.711s0.444-0.8 0.444-1.333c0-0.444-0.089-0.8-0.267-1.156-0.267-0.356-0.533-0.622-0.889-0.8-0.533-0.178-1.067-0.267-1.6-0.267-0.356 0-0.622 0-0.889 0-0.356 0-0.533 0-0.622 0.089v0z"></path>
<path fill="#9294c9" d="M19.556 11.733h2.311c0.089 0 0.267 0.089 0.267 0.178s0.089 0.178 0.089 0.356c0 0.089 0.089 0.267 0.089 0.444s0 0.267 0 0.444c0.356-0.444 0.889-0.889 1.422-1.156 0.622-0.356 1.333-0.533 2.044-0.533 0.089 0 0.178 0.089 0.178 0.178 0 0 0 0 0 0.089v2.578c0 0.089-0.089 0.178-0.178 0.178-0.444 0-0.978 0-1.422 0.089-0.356 0.089-0.8 0.178-1.156 0.356-0.267 0.089-0.533 0.267-0.711 0.533v6.756c0 0.089-0.089 0.178-0.178 0.178h-2.667c-0.089 0-0.178-0.089-0.178-0.178 0 0 0 0 0-0.089v-7.378c0-0.356 0-0.622 0-0.978s0-0.711 0-1.067c0-0.267 0-0.622-0.089-0.889 0 0 0.089-0.089 0.178-0.089-0.089 0 0 0 0 0v0z"></path>
</svg>
