<!-- Generated by IcoMoon.io -->
<svg version="1.1" xmlns="http://www.w3.org/2000/svg" width="32" height="32" viewBox="0 0 32 32">
<title>solidworks</title>
<path fill="#e31d1e" d="M28.991 11.244c1.52 0.234 2.806 0.468 2.922 0.935 0.351 0.701-1.286 0.701-2.104 0.701-3.975 0.117-6.313 0.117-6.546 1.286-0.117 1.52 1.637 3.039 3.507 5.144 1.637 1.987 3.507 3.858 2.922 5.728-0.701 2.221-3.858 2.806-6.78 2.806s-5.494-0.468-6.78-0.584c-1.403-0.234-1.169-0.935-0.935-1.052 0.468-0.234 2.922-0.234 4.559-0.351 1.286-0.117 5.377-0.117 5.962-0.935 0.818-1.052-1.052-2.922-2.922-4.91-2.104-2.455-4.559-4.91-3.273-6.78 2.104-2.689 6.78-2.455 9.469-1.987z"></path>
<path fill="#e31d1e" d="M16.249 0.84c2.922-0.117 6.546 0.468 7.131 2.338 1.052 3.039-4.442 7.715-9.118 9.936-1.169 0.585-1.87 0.701-2.221 0.701s-0.351-0.351-0.234-0.468c0.234-0.351 0.935-0.935 1.987-1.753 5.377-3.858 7.131-6.663 6.079-7.715-0.701-0.818-3.39-1.169-6.196-1.169-0.818 0-2.806 0.117-2.922-0.468s2.572-1.286 5.494-1.403z"></path>
<path fill="#e31d1e" d="M9.703 15.218c2.572-0.117 5.494 0.234 7.131 1.403 0.935 0.584 1.403 1.52 1.052 2.806-0.935 3.273-4.676 7.365-12.742 10.638-2.572 0.935-4.676 1.286-5.027 1.052-0.468-0.351 0.935-2.572 1.286-3.156 1.286-2.455 2.922-4.793 4.559-6.78 0.585-0.818 1.403-2.104 2.338-1.987 0.818 0.117-0.117 1.52-0.701 2.455-0.935 1.286-3.624 5.611-2.806 5.845 1.87 0.584 10.755-5.26 9.469-8.65-0.585-1.52-4.442-1.637-6.78-1.637-1.052 0-3.507 0.234-3.624-0.584-0.234-0.701 3.624-1.286 5.845-1.403z"></path>
</svg>
