<!-- Generated by IcoMoon.io -->
<svg version="1.1" xmlns="http://www.w3.org/2000/svg" width="32" height="32" viewBox="0 0 32 32">
<title>sublime-text</title>
<path fill="#4d4d4e" d="M30.758 31.994h-29.517c-0.68 0-1.239-0.558-1.239-1.239v-29.509c0-0.681 0.559-1.239 1.239-1.239h29.517c0.68 0 1.239 0.558 1.239 1.239v29.517c-0.008 0.68-0.559 1.231-1.239 1.231v0z"></path>
<path fill="#f89820" d="M24.22 15.195l-6.781-2.127 6.803-2.127c1.032-0.186 0.823-0.938 0.823-0.938l-0.044-5.12c0.287-1.153-0.902-0.53-0.902-0.53l-16.742 5.313c0 0-0.659 0.157-0.466 1.281l-0.036 4.934c0 0-0.058 0.623 1.124 0.874l16.591 5.341c0 0 0.558 0.221 0.494-0.466l0.008-5.499c0.003 0 0.16-0.564-0.872-0.937z"></path>
<path fill="#c37918" d="M14.689 18.904l-7.060 2.154c0 0-0.852 0.028-0.751 1.626 0.1 1.597-0.008 4.812-0.008 4.812s0.072 0.594 0.888 0.251l16.742-5.341c0 0 0.594-0.15 0.093-0.315-0.502-0.157-9.905-3.186-9.905-3.186z"></path>
</svg>
